<svg xmlns="http://www.w3.org/2000/svg" version="1.1" xmlns:xlink="http://www.w3.org/1999/xlink" xmlns:svgjs="http://svgjs.dev/svgjs" width="1500" height="1500" viewBox="0 0 1500 1500"><rect width="1500" height="1500" fill="#ffffff"></rect><g transform="matrix(0.6666666666666666,0,0,0.6666666666666666,249.39393939393938,630.8211752915021)"><svg viewBox="0 0 396 95" data-background-color="#000000" preserveAspectRatio="xMidYMid meet" height="359" width="1500" xmlns="http://www.w3.org/2000/svg" xmlns:xlink="http://www.w3.org/1999/xlink"><g id="tight-bounds" transform="matrix(1,0,0,1,0.2400000000000091,-0.1936420028942507)"><svg viewBox="0 0 395.52 95.38728400578852" height="95.38728400578852" width="395.52"><g><svg viewBox="0 0 562.9130704587358 135.75735467844325" height="95.38728400578852" width="395.52"><g transform="matrix(1,0,0,1,167.39307045873582,41.95099309964117)"><svg viewBox="0 0 395.52 51.85536847916091" height="51.85536847916091" width="395.52"><g id="textblocktransform"><svg viewBox="0 0 395.52 51.85536847916091" height="51.85536847916091" width="395.52" id="textblock"><g><svg viewBox="0 0 395.52 51.85536847916091" height="51.85536847916091" width="395.52"><g transform="matrix(1,0,0,1,0,0)"><svg width="395.52" viewBox="4.2 -37.5 362.28000000000003 47.5" height="51.85536847916091" data-palette-color="url(#c42d06e7-5830-432e-9353-154569a5f4e8)"></svg></g></svg></g></svg></g></svg></g><g><svg viewBox="0 0 155.15126248964944 135.75735467844325" height="135.75735467844325" width="155.15126248964944"><g><svg xmlns="http://www.w3.org/2000/svg" xmlns:xlink="http://www.w3.org/1999/xlink" version="1.1" x="0" y="0" viewBox="10 15 80 70" enable-background="new 0 0 100 100" xml:space="preserve" height="135.75735467844325" width="155.15126248964944" class="icon-icon-0" data-fill-palette-color="accent" id="icon-0"></svg></g></svg></g></svg></g><defs></defs><mask id="bec8eada-998c-454e-a544-0980a00ed1b5"><g id="SvgjsG1796"><svg viewBox="0 0 395.52 95.38728400578852" height="95.38728400578852" width="395.52"><g><svg viewBox="0 0 562.9130704587358 135.75735467844325" height="95.38728400578852" width="395.52"><g transform="matrix(1,0,0,1,167.39307045873582,41.95099309964117)"><svg viewBox="0 0 395.52 51.85536847916091" height="51.85536847916091" width="395.52"><g id="SvgjsG1795"><svg viewBox="0 0 395.52 51.85536847916091" height="51.85536847916091" width="395.52" id="SvgjsSvg1794"><g><svg viewBox="0 0 395.52 51.85536847916091" height="51.85536847916091" width="395.52"><g transform="matrix(1,0,0,1,0,0)"><svg width="395.52" viewBox="4.2 -37.5 362.28000000000003 47.5" height="51.85536847916091" data-palette-color="url(#c42d06e7-5830-432e-9353-154569a5f4e8)"><path d="M29.4-17.5L29.4 0 24.4 0 24.4-17.5Q24.4-20.95 22.73-23.8 21.05-26.65 18.2-28.33 15.35-30 11.9-30L11.9-30 9.2-30 9.2 0 4.2 0 4.2-35 11.9-35Q16.65-35 20.63-32.65 24.6-30.3 26.9-26.5L26.9-26.5Q29.2-30.3 33.18-32.65 37.15-35 41.9-35L41.9-35 49.6-35 49.6 0 44.6 0 44.6-30 41.9-30Q38.45-30 35.63-28.33 32.8-26.65 31.1-23.8 29.4-20.95 29.4-17.5L29.4-17.5ZM90.65-13.75L90.65-13.75Q90.65-10.9 89.6-8.43 88.55-5.95 86.67-4.05 84.8-2.15 82.32-1.07 79.85 0 77 0L77 0 69.3 0Q66.45 0 63.97-1.07 61.5-2.15 59.62-4.05 57.75-5.95 56.7-8.43 55.65-10.9 55.65-13.75L55.65-13.75Q55.65-16.6 56.7-19.07 57.75-21.55 59.62-23.45 61.5-25.35 63.97-26.43 66.45-27.5 69.3-27.5L69.3-27.5 77-27.5Q79.85-27.5 82.32-26.43 84.8-25.35 86.67-23.45 88.55-21.55 89.6-19.07 90.65-16.6 90.65-13.75ZM85.65-13.75L85.65-13.75Q85.65-16.15 84.5-18.13 83.35-20.1 81.37-21.3 79.4-22.5 77-22.5L77-22.5 69.3-22.5Q66.9-22.5 64.95-21.3 63-20.1 61.82-18.13 60.65-16.15 60.65-13.75L60.65-13.75Q60.65-11.35 61.82-9.38 63-7.4 64.95-6.2 66.9-5 69.3-5L69.3-5 77-5Q79.4-5 81.37-6.2 83.35-7.4 84.5-9.38 85.65-11.35 85.65-13.75ZM101.09-22.5L101.09 0 96.09 0 96.09-27.5 114.84-27.5Q117.7-27.5 120.17-26.43 122.65-25.35 124.52-23.45 126.4-21.55 127.45-19.07 128.5-16.6 128.5-13.75L128.5-13.75 128.5 0 123.5 0 123.5-13.75Q123.5-16.15 122.34-18.13 121.2-20.1 119.22-21.3 117.25-22.5 114.84-22.5L114.84-22.5 101.09-22.5ZM167.24-18.75L167.24-18.75Q167.24-16.35 166.07-14.35 164.89-12.35 162.92-11.18 160.94-10 158.49-10L158.49-10 139.34-10Q140.39-7.8 142.47-6.4 144.54-5 147.14-5L147.14-5 163.49-5 163.49 0 147.14 0Q144.29 0 141.82-1.07 139.34-2.15 137.47-4.05 135.59-5.95 134.54-8.43 133.49-10.9 133.49-13.75L133.49-13.75Q133.49-16.6 134.54-19.07 135.59-21.55 137.47-23.45 139.34-25.35 141.82-26.43 144.29-27.5 147.14-27.5L147.14-27.5 158.49-27.5Q160.94-27.5 162.92-26.33 164.89-25.15 166.07-23.18 167.24-21.2 167.24-18.75ZM138.59-15L158.49-15Q160.04-15 161.14-16.1 162.24-17.2 162.24-18.75L162.24-18.75Q162.24-20.3 161.14-21.4 160.04-22.5 158.49-22.5L158.49-22.5 147.14-22.5Q144.94-22.5 143.12-21.5 141.29-20.5 140.09-18.8 138.89-17.1 138.59-15L138.59-15ZM204.09-27.5L204.09 1.25Q204.09 3.65 202.92 5.65 201.74 7.65 199.77 8.83 197.79 10 195.34 10L195.34 10 175.34 10 175.34 5 195.34 5Q196.89 5 197.99 3.9 199.09 2.8 199.09 1.25L199.09 1.25 199.09 0 185.34 0Q182.49 0 180.02-1.07 177.54-2.15 175.67-4.05 173.79-5.95 172.74-8.43 171.69-10.9 171.69-13.75L171.69-13.75 171.69-27.5 176.69-27.5 176.69-13.75Q176.69-11.35 177.87-9.38 179.04-7.4 180.99-6.23 182.94-5.05 185.34-5L185.34-5 199.09-5 199.09-27.5 204.09-27.5ZM237.09-17.5L237.09 0 232.09 0 232.09-17.5Q232.09-20.95 230.41-23.8 228.74-26.65 225.89-28.33 223.04-30 219.59-30L219.59-30 216.89-30 216.89 0 211.89 0 211.89-35 219.59-35Q224.34-35 228.31-32.65 232.29-30.3 234.59-26.5L234.59-26.5Q236.89-30.3 240.86-32.65 244.84-35 249.59-35L249.59-35 257.29-35 257.29 0 252.29 0 252.29-30 249.59-30Q246.14-30 243.31-28.33 240.49-26.65 238.79-23.8 237.09-20.95 237.09-17.5L237.09-17.5ZM296.38-18.75L296.38 0 271.38 0Q268.99 0 266.99-1.18 264.99-2.35 263.81-4.33 262.63-6.3 262.63-8.75L262.63-8.75Q262.63-11.2 263.81-13.18 264.99-15.15 266.99-16.32 268.99-17.5 271.38-17.5L271.38-17.5 288.88-17.5 288.88-12.5 271.38-12.5Q269.84-12.5 268.74-11.4 267.63-10.3 267.63-8.75L267.63-8.75Q267.63-7.2 268.74-6.1 269.84-5 271.38-5L271.38-5 291.38-5 291.38-18.75Q291.38-20.3 290.29-21.4 289.19-22.5 287.63-22.5L287.63-22.5 267.63-22.5 267.63-27.5 287.63-27.5Q290.09-27.5 292.06-26.33 294.04-25.15 295.21-23.18 296.38-21.2 296.38-18.75L296.38-18.75ZM313.03-22.5L313.03 0 308.03 0 308.03-22.5 300.53-22.5 300.53-27.5 308.03-27.5 308.03-37.5 313.03-37.5 313.03-27.5 330.53-27.5 330.53-22.5 313.03-22.5ZM366.48-18.75L366.48-18.75Q366.48-16.35 365.31-14.35 364.13-12.35 362.16-11.18 360.18-10 357.73-10L357.73-10 338.58-10Q339.63-7.8 341.71-6.4 343.78-5 346.38-5L346.38-5 362.73-5 362.73 0 346.38 0Q343.53 0 341.06-1.07 338.58-2.15 336.71-4.05 334.83-5.95 333.78-8.43 332.73-10.9 332.73-13.75L332.73-13.75Q332.73-16.6 333.78-19.07 334.83-21.55 336.71-23.45 338.58-25.35 341.06-26.43 343.53-27.5 346.38-27.5L346.38-27.5 357.73-27.5Q360.18-27.5 362.16-26.33 364.13-25.15 365.31-23.18 366.48-21.2 366.48-18.75ZM337.83-15L357.73-15Q359.28-15 360.38-16.1 361.48-17.2 361.48-18.75L361.48-18.75Q361.48-20.3 360.38-21.4 359.28-22.5 357.73-22.5L357.73-22.5 346.38-22.5Q344.18-22.5 342.36-21.5 340.53-20.5 339.33-18.8 338.13-17.1 337.83-15L337.83-15Z" opacity="1" transform="matrix(1,0,0,1,0,0)" fill="white" class="wordmark-text-0" id="SvgjsPath1793"></path></svg></g></svg></g></svg></g></svg></g><g><svg viewBox="0 0 155.15126248964944 135.75735467844325" height="135.75735467844325" width="155.15126248964944"><g><svg xmlns="http://www.w3.org/2000/svg" xmlns:xlink="http://www.w3.org/1999/xlink" version="1.1" x="0" y="0" viewBox="10 15 80 70" enable-background="new 0 0 100 100" xml:space="preserve" height="135.75735467844325" width="155.15126248964944" class="icon-icon-0" data-fill-palette-color="accent" id="SvgjsSvg1792"><path d="M72.8 23.5C66.7 18.2 58.7 15 50 15 33.9 15 20.3 25.9 16.3 40.7 12.6 42.2 10 45.8 10 50 10 55.5 14.5 60 20 60H20.3L22.3 80 27.2 76.5C33.3 81.8 41.3 85 50 85 66.1 85 79.7 74.1 83.7 59.3 87.4 57.8 90 54.2 90 50 90 44.5 85.5 40 80 40H79.7L77.7 20zM14 50C14 46.7 16.7 44 20 44S26 46.7 26 50 23.3 56 20 56 14 53.3 14 50M86 50C86 53.3 83.3 56 80 56S74 53.3 74 50 76.7 44 80 44 86 46.7 86 50M78.2 40.2C73.5 41 70 45.1 70 50 70 53.2 71.5 56 73.8 57.8 70.5 67.8 61.1 75 50 75 44.6 75 39.7 73.3 35.6 70.4L39.3 67.7 21.7 59.8C26.5 59 30 54.9 30 50 30 46.8 28.5 44 26.3 42.2 29.5 32.2 38.9 25 50 25 55.4 25 60.3 26.7 64.4 29.6L60.7 32.3z" fill="black"></path></svg></g></svg></g></svg></g><defs><mask></mask></defs></svg><rect width="395.52" height="95.38728400578852" fill="black" stroke="none" visibility="hidden"></rect></g></mask><linearGradient x1="0.054" x2="0.941" y1="0.5" y2="0.5" id="c42d06e7-5830-432e-9353-154569a5f4e8"><stop stop-color="#8c8c8c" offset="0"></stop><stop stop-color="#e3e4e5" offset="0.498"></stop><stop stop-color="#8c8c8c" offset="1"></stop></linearGradient><rect width="395.52" height="95.38728400578852" fill="#000000" mask="url(#bec8eada-998c-454e-a544-0980a00ed1b5)" data-fill-palette-color="primary"></rect><mask id="28768de4-31af-4a17-bb68-9a9a36a0d85c"><g id="SvgjsG1815"><svg viewBox="0 0 395.52 95.38728400578852" height="95.38728400578852" width="395.52"><g><svg viewBox="0 0 562.9130704587358 135.75735467844325" height="95.38728400578852" width="395.52"><g transform="matrix(1,0,0,1,167.39307045873582,41.95099309964117)"><svg viewBox="0 0 395.52 51.85536847916091" height="51.85536847916091" width="395.52"><g id="SvgjsG1814"><svg viewBox="0 0 395.52 51.85536847916091" height="51.85536847916091" width="395.52" id="SvgjsSvg1813"><g><svg viewBox="0 0 395.52 51.85536847916091" height="51.85536847916091" width="395.52"><g transform="matrix(1,0,0,1,0,0)"><svg width="395.52" viewBox="4.2 -37.5 362.28000000000003 47.5" height="51.85536847916091" data-palette-color="url(#c42d06e7-5830-432e-9353-154569a5f4e8)"></svg></g></svg></g></svg></g></svg></g><g><svg viewBox="0 0 155.15126248964944 135.75735467844325" height="135.75735467844325" width="155.15126248964944"><g><svg xmlns="http://www.w3.org/2000/svg" xmlns:xlink="http://www.w3.org/1999/xlink" version="1.1" x="0" y="0" viewBox="10 15 80 70" enable-background="new 0 0 100 100" xml:space="preserve" height="135.75735467844325" width="155.15126248964944" class="icon-icon-0" data-fill-palette-color="accent" id="SvgjsSvg1812"><path d="M72.8 23.5C66.7 18.2 58.7 15 50 15 33.9 15 20.3 25.9 16.3 40.7 12.6 42.2 10 45.8 10 50 10 55.5 14.5 60 20 60H20.3L22.3 80 27.2 76.5C33.3 81.8 41.3 85 50 85 66.1 85 79.7 74.1 83.7 59.3 87.4 57.8 90 54.2 90 50 90 44.5 85.5 40 80 40H79.7L77.7 20zM14 50C14 46.7 16.7 44 20 44S26 46.7 26 50 23.3 56 20 56 14 53.3 14 50M86 50C86 53.3 83.3 56 80 56S74 53.3 74 50 76.7 44 80 44 86 46.7 86 50M78.2 40.2C73.5 41 70 45.1 70 50 70 53.2 71.5 56 73.8 57.8 70.5 67.8 61.1 75 50 75 44.6 75 39.7 73.3 35.6 70.4L39.3 67.7 21.7 59.8C26.5 59 30 54.9 30 50 30 46.8 28.5 44 26.3 42.2 29.5 32.2 38.9 25 50 25 55.4 25 60.3 26.7 64.4 29.6L60.7 32.3z" fill="white"></path></svg></g></svg></g></svg></g><defs><mask></mask></defs><mask><g id="SvgjsG1811"><svg viewBox="0 0 395.52 95.38728400578852" height="95.38728400578852" width="395.52"><g><svg viewBox="0 0 562.9130704587358 135.75735467844325" height="95.38728400578852" width="395.52"><g transform="matrix(1,0,0,1,167.39307045873582,41.95099309964117)"><svg viewBox="0 0 395.52 51.85536847916091" height="51.85536847916091" width="395.52"><g id="SvgjsG1810"><svg viewBox="0 0 395.52 51.85536847916091" height="51.85536847916091" width="395.52" id="SvgjsSvg1809"><g><svg viewBox="0 0 395.52 51.85536847916091" height="51.85536847916091" width="395.52"><g transform="matrix(1,0,0,1,0,0)"><svg width="395.52" viewBox="4.2 -37.5 362.28000000000003 47.5" height="51.85536847916091" data-palette-color="url(#c42d06e7-5830-432e-9353-154569a5f4e8)"><path d="M29.4-17.5L29.4 0 24.4 0 24.4-17.5Q24.4-20.95 22.73-23.8 21.05-26.65 18.2-28.33 15.35-30 11.9-30L11.9-30 9.2-30 9.2 0 4.2 0 4.2-35 11.9-35Q16.65-35 20.63-32.65 24.6-30.3 26.9-26.5L26.9-26.5Q29.2-30.3 33.18-32.65 37.15-35 41.9-35L41.9-35 49.6-35 49.6 0 44.6 0 44.6-30 41.9-30Q38.45-30 35.63-28.33 32.8-26.65 31.1-23.8 29.4-20.95 29.4-17.5L29.4-17.5ZM90.65-13.75L90.65-13.75Q90.65-10.9 89.6-8.43 88.55-5.95 86.67-4.05 84.8-2.15 82.32-1.07 79.85 0 77 0L77 0 69.3 0Q66.45 0 63.97-1.07 61.5-2.15 59.62-4.05 57.75-5.95 56.7-8.43 55.65-10.9 55.65-13.75L55.65-13.75Q55.65-16.6 56.7-19.07 57.75-21.55 59.62-23.45 61.5-25.35 63.97-26.43 66.45-27.5 69.3-27.5L69.3-27.5 77-27.5Q79.85-27.5 82.32-26.43 84.8-25.35 86.67-23.45 88.55-21.55 89.6-19.07 90.65-16.6 90.65-13.75ZM85.65-13.75L85.65-13.75Q85.65-16.15 84.5-18.13 83.35-20.1 81.37-21.3 79.4-22.5 77-22.5L77-22.5 69.3-22.5Q66.9-22.5 64.95-21.3 63-20.1 61.82-18.13 60.65-16.15 60.65-13.75L60.65-13.75Q60.65-11.35 61.82-9.38 63-7.4 64.95-6.2 66.9-5 69.3-5L69.3-5 77-5Q79.4-5 81.37-6.2 83.35-7.4 84.5-9.38 85.65-11.35 85.65-13.75ZM101.09-22.5L101.09 0 96.09 0 96.09-27.5 114.84-27.5Q117.7-27.5 120.17-26.43 122.65-25.35 124.52-23.45 126.4-21.55 127.45-19.07 128.5-16.6 128.5-13.75L128.5-13.75 128.5 0 123.5 0 123.5-13.75Q123.5-16.15 122.34-18.13 121.2-20.1 119.22-21.3 117.25-22.5 114.84-22.5L114.84-22.5 101.09-22.5ZM167.24-18.75L167.24-18.75Q167.24-16.35 166.07-14.35 164.89-12.35 162.92-11.18 160.94-10 158.49-10L158.49-10 139.34-10Q140.39-7.8 142.47-6.4 144.54-5 147.14-5L147.14-5 163.49-5 163.49 0 147.14 0Q144.29 0 141.82-1.07 139.34-2.15 137.47-4.05 135.59-5.95 134.54-8.43 133.49-10.9 133.49-13.75L133.49-13.75Q133.49-16.6 134.54-19.07 135.59-21.55 137.47-23.45 139.34-25.35 141.82-26.43 144.29-27.5 147.14-27.5L147.14-27.5 158.49-27.5Q160.94-27.5 162.92-26.33 164.89-25.15 166.07-23.18 167.24-21.2 167.24-18.75ZM138.59-15L158.49-15Q160.04-15 161.14-16.1 162.24-17.2 162.24-18.75L162.24-18.75Q162.24-20.3 161.14-21.4 160.04-22.5 158.49-22.5L158.49-22.5 147.14-22.5Q144.94-22.5 143.12-21.5 141.29-20.5 140.09-18.8 138.89-17.1 138.59-15L138.59-15ZM204.09-27.5L204.09 1.25Q204.09 3.65 202.92 5.65 201.74 7.65 199.77 8.83 197.79 10 195.34 10L195.34 10 175.34 10 175.34 5 195.34 5Q196.89 5 197.99 3.9 199.09 2.8 199.09 1.25L199.09 1.25 199.09 0 185.34 0Q182.49 0 180.02-1.07 177.54-2.15 175.67-4.05 173.79-5.95 172.74-8.43 171.69-10.9 171.69-13.75L171.69-13.75 171.69-27.5 176.69-27.5 176.69-13.75Q176.69-11.35 177.87-9.38 179.04-7.4 180.99-6.23 182.94-5.05 185.34-5L185.34-5 199.09-5 199.09-27.5 204.09-27.5ZM237.09-17.5L237.09 0 232.09 0 232.09-17.5Q232.09-20.95 230.41-23.8 228.74-26.65 225.89-28.33 223.04-30 219.59-30L219.59-30 216.89-30 216.89 0 211.89 0 211.89-35 219.59-35Q224.34-35 228.31-32.65 232.29-30.3 234.59-26.5L234.59-26.5Q236.89-30.3 240.86-32.65 244.84-35 249.59-35L249.59-35 257.29-35 257.29 0 252.29 0 252.29-30 249.59-30Q246.14-30 243.31-28.33 240.49-26.65 238.79-23.8 237.09-20.95 237.09-17.5L237.09-17.5ZM296.38-18.75L296.38 0 271.38 0Q268.99 0 266.99-1.18 264.99-2.35 263.81-4.33 262.63-6.3 262.63-8.75L262.63-8.75Q262.63-11.2 263.81-13.18 264.99-15.15 266.99-16.32 268.99-17.5 271.38-17.5L271.38-17.5 288.88-17.5 288.88-12.5 271.38-12.5Q269.84-12.5 268.74-11.4 267.63-10.3 267.63-8.75L267.63-8.75Q267.63-7.2 268.74-6.1 269.84-5 271.38-5L271.38-5 291.38-5 291.38-18.75Q291.38-20.3 290.29-21.4 289.19-22.5 287.63-22.5L287.63-22.5 267.63-22.5 267.63-27.5 287.63-27.5Q290.09-27.5 292.06-26.33 294.04-25.15 295.21-23.18 296.38-21.2 296.38-18.75L296.38-18.75ZM313.03-22.5L313.03 0 308.03 0 308.03-22.5 300.53-22.5 300.53-27.5 308.03-27.5 308.03-37.5 313.03-37.5 313.03-27.5 330.53-27.5 330.53-22.5 313.03-22.5ZM366.48-18.75L366.48-18.75Q366.48-16.35 365.31-14.35 364.13-12.35 362.16-11.18 360.18-10 357.73-10L357.73-10 338.58-10Q339.63-7.8 341.71-6.4 343.78-5 346.38-5L346.38-5 362.73-5 362.73 0 346.38 0Q343.53 0 341.06-1.07 338.58-2.15 336.71-4.05 334.83-5.95 333.78-8.43 332.73-10.9 332.73-13.75L332.73-13.75Q332.73-16.6 333.78-19.07 334.83-21.55 336.71-23.45 338.58-25.35 341.06-26.43 343.53-27.5 346.38-27.5L346.38-27.5 357.73-27.5Q360.18-27.5 362.16-26.33 364.13-25.15 365.31-23.18 366.48-21.2 366.48-18.75ZM337.83-15L357.73-15Q359.28-15 360.38-16.1 361.48-17.2 361.48-18.75L361.48-18.75Q361.48-20.3 360.38-21.4 359.28-22.5 357.73-22.5L357.73-22.5 346.38-22.5Q344.18-22.5 342.36-21.5 340.53-20.5 339.33-18.8 338.13-17.1 337.83-15L337.83-15Z" opacity="1" transform="matrix(1,0,0,1,0,0)" fill="black" class="wordmark-text-0" id="SvgjsPath1808"></path></svg></g></svg></g></svg></g></svg></g><g><svg viewBox="0 0 155.15126248964944 135.75735467844325" height="135.75735467844325" width="155.15126248964944"><g><svg xmlns="http://www.w3.org/2000/svg" xmlns:xlink="http://www.w3.org/1999/xlink" version="1.1" x="0" y="0" viewBox="10 15 80 70" enable-background="new 0 0 100 100" xml:space="preserve" height="135.75735467844325" width="155.15126248964944" class="icon-icon-0" data-fill-palette-color="accent" id="SvgjsSvg1807"><path d="M72.8 23.5C66.7 18.2 58.7 15 50 15 33.9 15 20.3 25.9 16.3 40.7 12.6 42.2 10 45.8 10 50 10 55.5 14.5 60 20 60H20.3L22.3 80 27.2 76.5C33.3 81.8 41.3 85 50 85 66.1 85 79.7 74.1 83.7 59.3 87.4 57.8 90 54.2 90 50 90 44.5 85.5 40 80 40H79.7L77.7 20zM14 50C14 46.7 16.7 44 20 44S26 46.7 26 50 23.3 56 20 56 14 53.3 14 50M86 50C86 53.3 83.3 56 80 56S74 53.3 74 50 76.7 44 80 44 86 46.7 86 50M78.2 40.2C73.5 41 70 45.1 70 50 70 53.2 71.5 56 73.8 57.8 70.5 67.8 61.1 75 50 75 44.6 75 39.7 73.3 35.6 70.4L39.3 67.7 21.7 59.8C26.5 59 30 54.9 30 50 30 46.8 28.5 44 26.3 42.2 29.5 32.2 38.9 25 50 25 55.4 25 60.3 26.7 64.4 29.6L60.7 32.3z" fill="black"></path></svg></g></svg></g></svg></g><defs><mask></mask></defs></svg><rect width="395.52" height="95.38728400578852" fill="black" stroke="none" visibility="hidden"></rect></g></mask></svg><rect width="395.52" height="95.38728400578852" fill="black" stroke="none" visibility="hidden"></rect></g></mask><linearGradient x1="0.054" x2="0.941" y1="0.5" y2="0.5" id="1d49e70d-0a32-4f31-a346-fc6c35886419"><stop stop-color="#8c8c8c" offset="0"></stop><stop stop-color="#e3e4e5" offset="0.498"></stop><stop stop-color="#8c8c8c" offset="1"></stop></linearGradient><rect width="395.52" height="95.38728400578852" fill="#000000" mask="url(#28768de4-31af-4a17-bb68-9a9a36a0d85c)" data-fill-palette-color="accent"></rect></svg><rect width="395.52" height="95.38728400578852" fill="none" stroke="none" visibility="hidden"></rect></g></svg></g></svg>